<svg version="1.1" id="Layer_1" xmlns="http://www.w3.org/2000/svg" xmlns:xlink="http://www.w3.org/1999/xlink" x="0px" y="0px"
	 width="100%" viewBox="0 0 320 320" enable-background="new 0 0 320 320" xml:space="preserve">
<path fill=" rgba(0, 0, 0, 0)" opacity="1.000000" stroke="none" 
	d="
M161.000000,321.000000 
	C107.333344,321.000000 54.166687,321.000000 1.000021,321.000000 
	C1.000014,214.333359 1.000014,107.666725 1.000007,1.000064 
	C107.666618,1.000043 214.333237,1.000043 320.999878,1.000021 
	C320.999939,107.666595 320.999939,214.333191 320.999969,320.999878 
	C267.833344,321.000000 214.666672,321.000000 161.000000,321.000000 
M274.181366,125.002441 
	C260.063049,131.274582 246.497696,130.091949 234.413361,120.584908 
	C226.766464,114.568893 220.332581,107.035866 212.973389,100.620605 
	C208.087067,96.361015 202.946259,92.013039 197.186859,89.209343 
	C182.208984,81.918083 166.366486,79.841232 149.614487,81.827866 
	C125.922600,84.637527 109.546417,96.738098 99.580086,117.990143 
	C97.551079,122.316765 96.323929,127.019417 94.727135,131.548721 
	C95.296150,131.901993 95.865173,132.255264 96.434189,132.608551 
	C98.884621,129.976654 101.058228,126.992760 103.851128,124.796356 
	C107.916565,121.599197 112.066315,117.893074 116.816238,116.296516 
	C131.843918,111.245384 145.635193,113.738983 157.515396,124.951653 
	C166.189377,133.138260 174.644424,141.700302 184.143280,148.835297 
	C197.878433,159.152359 214.036819,161.669113 231.035904,161.123245 
	C249.896957,160.517593 266.360260,155.020874 278.939667,140.456436 
	C284.796875,133.674911 289.789490,126.263138 291.708679,116.773605 
	C292.044617,115.252419 292.380585,113.731239 292.980286,111.015900 
	C286.364136,116.108162 280.658112,120.499947 274.181366,125.002441 
M39.825737,201.993820 
	C53.661541,191.646912 68.304901,189.783890 83.286079,198.946243 
	C88.669777,202.238861 93.241302,206.979279 97.832512,211.421692 
	C106.101059,219.422195 114.263565,227.606033 124.630699,232.838562 
	C141.743225,241.475693 159.741348,242.720383 178.478302,239.103073 
	C205.550125,233.876648 221.918533,214.007172 228.256393,188.879150 
	C225.686539,191.699799 222.183365,193.577042 219.399689,196.213882 
	C205.881378,209.018982 185.032257,213.128113 169.504059,200.950317 
	C161.351166,194.556519 154.179565,186.922287 146.438019,179.989822 
	C139.744034,173.995407 132.371231,169.148605 123.861137,165.863388 
	C109.326561,160.252518 94.509697,160.253586 79.341843,161.920227 
	C54.594048,164.639481 35.683281,184.489090 29.869015,206.640289 
	C29.967024,207.792114 30.065033,208.943954 30.273703,211.396286 
	C34.015957,207.436844 36.565212,204.739639 39.825737,201.993820 
z"/>
<path fill="#38BDF8" opacity="1.000000" stroke="none" 
	d="
M30.166599,206.000366 
	C35.683281,184.489090 54.594048,164.639481 79.341843,161.920227 
	C94.509697,160.253586 109.326561,160.252518 123.861137,165.863388 
	C132.371231,169.148605 139.744034,173.995407 146.438019,179.989822 
	C154.179565,186.922287 161.351166,194.556519 169.504059,200.950317 
	C185.032257,213.128113 205.881378,209.018982 219.399689,196.213882 
	C222.183365,193.577042 225.686539,191.699799 228.256393,188.879150 
	C221.918533,214.007172 205.550125,233.876648 178.478302,239.103073 
	C159.741348,242.720383 141.743225,241.475693 124.630699,232.838562 
	C114.263565,227.606033 106.101059,219.422195 97.832512,211.421692 
	C93.241302,206.979279 88.669777,202.238861 83.286079,198.946243 
	C68.304901,189.783890 53.661541,191.646912 39.086227,202.013702 
	C35.620014,203.355835 32.893307,204.678101 30.166599,206.000366 
z"/>
<path fill="#38BDF8" opacity="1.000000" stroke="none" 
	d="
M291.117493,117.039825 
	C289.789490,126.263138 284.796875,133.674911 278.939667,140.456436 
	C266.360260,155.020874 249.896957,160.517593 231.035904,161.123245 
	C214.036819,161.669113 197.878433,159.152359 184.143280,148.835297 
	C174.644424,141.700302 166.189377,133.138260 157.515396,124.951653 
	C145.635193,113.738983 131.843918,111.245384 116.816238,116.296516 
	C112.066315,117.893074 107.916565,121.599197 103.851128,124.796356 
	C101.058228,126.992760 98.884621,129.976654 96.434189,132.608551 
	C95.865173,132.255264 95.296150,131.901993 94.727135,131.548721 
	C96.323929,127.019417 97.551079,122.316765 99.580086,117.990143 
	C109.546417,96.738098 125.922600,84.637527 149.614487,81.827866 
	C166.366486,79.841232 182.208984,81.918083 197.186859,89.209343 
	C202.946259,92.013039 208.087067,96.361015 212.973389,100.620605 
	C220.332581,107.035866 226.766464,114.568893 234.413361,120.584908 
	C246.497696,130.091949 260.063049,131.274582 274.819977,125.164192 
	C277.353729,124.662804 279.389374,124.250351 281.114319,123.283539 
	C284.539276,121.363899 287.792999,119.138725 291.117493,117.039825 
z"/>
<path fill="#38BDF8" opacity="1.000000" stroke="none" 
	d="
M291.413086,116.906715 
	C287.792999,119.138725 284.539276,121.363899 281.114319,123.283539 
	C279.389374,124.250351 277.353729,124.662804 275.205322,125.108833 
	C280.658112,120.499947 286.364136,116.108162 292.980286,111.015900 
	C292.380585,113.731239 292.044617,115.252419 291.413086,116.906715 
z"/>
<path fill="#38BDF8" opacity="1.000000" stroke="none" 
	d="
M30.017807,206.320328 
	C32.893307,204.678101 35.620014,203.355835 38.730595,202.038010 
	C36.565212,204.739639 34.015957,207.436844 30.273703,211.396286 
	C30.065033,208.943954 29.967024,207.792114 30.017807,206.320328 
z"/>
</svg>